<svg width="118" height="12" viewBox="0 0 118 12" fill="none" xmlns="http://www.w3.org/2000/svg">
<path d="M2.592 8.872C2.32533 8.872 2.06933 8.824 1.824 8.728C1.58933 8.62133 1.38133 8.47733 1.2 8.296C1.02933 8.104 0.890667 7.88533 0.784 7.64C0.688 7.384 0.64 7.10133 0.64 6.792C0.64 6.49333 0.688 6.216 0.784 5.96C0.890667 5.704 1.02933 5.48533 1.2 5.304C1.38133 5.12267 1.58933 4.97867 1.824 4.872C2.06933 4.76533 2.32533 4.712 2.592 4.712C2.85867 4.712 3.10933 4.76533 3.344 4.872C3.58933 4.97867 3.80267 5.12267 3.984 5.304C4.16533 5.48533 4.304 5.704 4.4 5.96C4.50667 6.216 4.56 6.49333 4.56 6.792C4.56 7.10133 4.50667 7.384 4.4 7.64C4.304 7.88533 4.16533 8.104 3.984 8.296C3.80267 8.47733 3.58933 8.62133 3.344 8.728C3.10933 8.824 2.85867 8.872 2.592 8.872ZM10.9983 8.872C10.7316 8.872 10.4756 8.824 10.2303 8.728C9.99558 8.62133 9.78758 8.47733 9.60625 8.296C9.43558 8.104 9.29692 7.88533 9.19025 7.64C9.09425 7.384 9.04625 7.10133 9.04625 6.792C9.04625 6.49333 9.09425 6.216 9.19025 5.96C9.29692 5.704 9.43558 5.48533 9.60625 5.304C9.78758 5.12267 9.99558 4.97867 10.2303 4.872C10.4756 4.76533 10.7316 4.712 10.9983 4.712C11.2649 4.712 11.5156 4.76533 11.7503 4.872C11.9956 4.97867 12.2089 5.12267 12.3903 5.304C12.5716 5.48533 12.7103 5.704 12.8063 5.96C12.9129 6.216 12.9663 6.49333 12.9663 6.792C12.9663 7.10133 12.9129 7.384 12.8063 7.64C12.7103 7.88533 12.5716 8.104 12.3903 8.296C12.2089 8.47733 11.9956 8.62133 11.7503 8.728C11.5156 8.824 11.2649 8.872 10.9983 8.872ZM19.4045 8.872C19.1378 8.872 18.8818 8.824 18.6365 8.728C18.4018 8.62133 18.1938 8.47733 18.0125 8.296C17.8418 8.104 17.7032 7.88533 17.5965 7.64C17.5005 7.384 17.4525 7.10133 17.4525 6.792C17.4525 6.49333 17.5005 6.216 17.5965 5.96C17.7032 5.704 17.8418 5.48533 18.0125 5.304C18.1938 5.12267 18.4018 4.97867 18.6365 4.872C18.8818 4.76533 19.1378 4.712 19.4045 4.712C19.6712 4.712 19.9218 4.76533 20.1565 4.872C20.4018 4.97867 20.6152 5.12267 20.7965 5.304C20.9778 5.48533 21.1165 5.704 21.2125 5.96C21.3192 6.216 21.3725 6.49333 21.3725 6.792C21.3725 7.10133 21.3192 7.384 21.2125 7.64C21.1165 7.88533 20.9778 8.104 20.7965 8.296C20.6152 8.47733 20.4018 8.62133 20.1565 8.728C19.9218 8.824 19.6712 8.872 19.4045 8.872ZM31.0139 8.872C30.7472 8.872 30.4912 8.824 30.2459 8.728C30.0112 8.62133 29.8032 8.47733 29.6219 8.296C29.4512 8.104 29.3125 7.88533 29.2059 7.64C29.1099 7.384 29.0619 7.10133 29.0619 6.792C29.0619 6.49333 29.1099 6.216 29.2059 5.96C29.3125 5.704 29.4512 5.48533 29.6219 5.304C29.8032 5.12267 30.0112 4.97867 30.2459 4.872C30.4912 4.76533 30.7472 4.712 31.0139 4.712C31.2805 4.712 31.5312 4.76533 31.7659 4.872C32.0112 4.97867 32.2245 5.12267 32.4059 5.304C32.5872 5.48533 32.7259 5.704 32.8219 5.96C32.9285 6.216 32.9819 6.49333 32.9819 6.792C32.9819 7.10133 32.9285 7.384 32.8219 7.64C32.7259 7.88533 32.5872 8.104 32.4059 8.296C32.2245 8.47733 32.0112 8.62133 31.7659 8.728C31.5312 8.824 31.2805 8.872 31.0139 8.872ZM39.4201 8.872C39.1535 8.872 38.8975 8.824 38.6521 8.728C38.4175 8.62133 38.2095 8.47733 38.0281 8.296C37.8575 8.104 37.7188 7.88533 37.6121 7.64C37.5161 7.384 37.4681 7.10133 37.4681 6.792C37.4681 6.49333 37.5161 6.216 37.6121 5.96C37.7188 5.704 37.8575 5.48533 38.0281 5.304C38.2095 5.12267 38.4175 4.97867 38.6521 4.872C38.8975 4.76533 39.1535 4.712 39.4201 4.712C39.6868 4.712 39.9375 4.76533 40.1721 4.872C40.4175 4.97867 40.6308 5.12267 40.8121 5.304C40.9935 5.48533 41.1321 5.704 41.2281 5.96C41.3348 6.216 41.3881 6.49333 41.3881 6.792C41.3881 7.10133 41.3348 7.384 41.2281 7.64C41.1321 7.88533 40.9935 8.104 40.8121 8.296C40.6308 8.47733 40.4175 8.62133 40.1721 8.728C39.9375 8.824 39.6868 8.872 39.4201 8.872ZM47.8264 8.872C47.5597 8.872 47.3037 8.824 47.0584 8.728C46.8237 8.62133 46.6157 8.47733 46.4344 8.296C46.2637 8.104 46.125 7.88533 46.0184 7.64C45.9224 7.384 45.8744 7.10133 45.8744 6.792C45.8744 6.49333 45.9224 6.216 46.0184 5.96C46.125 5.704 46.2637 5.48533 46.4344 5.304C46.6157 5.12267 46.8237 4.97867 47.0584 4.872C47.3037 4.76533 47.5597 4.712 47.8264 4.712C48.093 4.712 48.3437 4.76533 48.5784 4.872C48.8237 4.97867 49.037 5.12267 49.2184 5.304C49.3997 5.48533 49.5384 5.704 49.6344 5.96C49.741 6.216 49.7944 6.49333 49.7944 6.792C49.7944 7.10133 49.741 7.384 49.6344 7.64C49.5384 7.88533 49.3997 8.104 49.2184 8.296C49.037 8.47733 48.8237 8.62133 48.5784 8.728C48.3437 8.824 48.093 8.872 47.8264 8.872ZM59.4358 8.872C59.1691 8.872 58.9131 8.824 58.6678 8.728C58.4331 8.62133 58.2251 8.47733 58.0438 8.296C57.8731 8.104 57.7344 7.88533 57.6278 7.64C57.5318 7.384 57.4838 7.10133 57.4838 6.792C57.4838 6.49333 57.5318 6.216 57.6278 5.96C57.7344 5.704 57.8731 5.48533 58.0438 5.304C58.2251 5.12267 58.4331 4.97867 58.6678 4.872C58.9131 4.76533 59.1691 4.712 59.4358 4.712C59.7024 4.712 59.9531 4.76533 60.1878 4.872C60.4331 4.97867 60.6464 5.12267 60.8278 5.304C61.0091 5.48533 61.1478 5.704 61.2438 5.96C61.3504 6.216 61.4038 6.49333 61.4038 6.792C61.4038 7.10133 61.3504 7.384 61.2438 7.64C61.1478 7.88533 61.0091 8.104 60.8278 8.296C60.6464 8.47733 60.4331 8.62133 60.1878 8.728C59.9531 8.824 59.7024 8.872 59.4358 8.872ZM67.842 8.872C67.5753 8.872 67.3193 8.824 67.074 8.728C66.8393 8.62133 66.6313 8.47733 66.45 8.296C66.2793 8.104 66.1407 7.88533 66.034 7.64C65.938 7.384 65.89 7.10133 65.89 6.792C65.89 6.49333 65.938 6.216 66.034 5.96C66.1407 5.704 66.2793 5.48533 66.45 5.304C66.6313 5.12267 66.8393 4.97867 67.074 4.872C67.3193 4.76533 67.5753 4.712 67.842 4.712C68.1087 4.712 68.3593 4.76533 68.594 4.872C68.8393 4.97867 69.0527 5.12267 69.234 5.304C69.4153 5.48533 69.554 5.704 69.65 5.96C69.7567 6.216 69.81 6.49333 69.81 6.792C69.81 7.10133 69.7567 7.384 69.65 7.64C69.554 7.88533 69.4153 8.104 69.234 8.296C69.0527 8.47733 68.8393 8.62133 68.594 8.728C68.3593 8.824 68.1087 8.872 67.842 8.872ZM76.2483 8.872C75.9816 8.872 75.7256 8.824 75.4803 8.728C75.2456 8.62133 75.0376 8.47733 74.8563 8.296C74.6856 8.104 74.5469 7.88533 74.4403 7.64C74.3443 7.384 74.2963 7.10133 74.2963 6.792C74.2963 6.49333 74.3443 6.216 74.4403 5.96C74.5469 5.704 74.6856 5.48533 74.8563 5.304C75.0376 5.12267 75.2456 4.97867 75.4803 4.872C75.7256 4.76533 75.9816 4.712 76.2483 4.712C76.5149 4.712 76.7656 4.76533 77.0003 4.872C77.2456 4.97867 77.4589 5.12267 77.6403 5.304C77.8216 5.48533 77.9603 5.704 78.0563 5.96C78.1629 6.216 78.2163 6.49333 78.2163 6.792C78.2163 7.10133 78.1629 7.384 78.0563 7.64C77.9603 7.88533 77.8216 8.104 77.6403 8.296C77.4589 8.47733 77.2456 8.62133 77.0003 8.728C76.7656 8.824 76.5149 8.872 76.2483 8.872ZM89.3776 11.192C88.8763 11.192 88.4123 11.1227 87.9856 10.984C87.5696 10.8453 87.207 10.6533 86.8976 10.408C86.599 10.1627 86.359 9.86933 86.1776 9.528C86.007 9.18667 85.9216 8.808 85.9216 8.392C85.9216 8.072 85.9696 7.784 86.0656 7.528C86.1723 7.26133 86.311 7.02133 86.4816 6.808C86.6523 6.59467 86.8443 6.40267 87.0576 6.232C87.2816 6.06133 87.5163 5.912 87.7616 5.784V5.72C87.367 5.44267 87.031 5.112 86.7536 4.728C86.487 4.344 86.3536 3.88 86.3536 3.336C86.3536 2.92 86.4283 2.54667 86.5776 2.216C86.7376 1.88533 86.951 1.60267 87.2176 1.368C87.495 1.13333 87.8203 0.952 88.1936 0.823999C88.5776 0.696 88.9883 0.632 89.4256 0.632C89.8843 0.632 90.295 0.701333 90.6576 0.839999C91.031 0.967999 91.3456 1.15467 91.6016 1.4C91.8683 1.63467 92.071 1.92267 92.2096 2.264C92.3483 2.59467 92.4176 2.968 92.4176 3.384C92.4176 3.64 92.375 3.88533 92.2896 4.12C92.215 4.344 92.1136 4.55733 91.9856 4.76C91.8576 4.952 91.7083 5.13333 91.5376 5.304C91.3776 5.464 91.2176 5.60267 91.0576 5.72V5.784C91.2923 5.912 91.5163 6.06133 91.7296 6.232C91.943 6.392 92.1296 6.57867 92.2896 6.792C92.4496 7.00533 92.5776 7.24533 92.6736 7.512C92.7696 7.77867 92.8176 8.08267 92.8176 8.424C92.8176 8.81867 92.7323 9.18667 92.5616 9.528C92.4016 9.85867 92.1723 10.152 91.8736 10.408C91.575 10.6533 91.2123 10.8453 90.7856 10.984C90.359 11.1227 89.8896 11.192 89.3776 11.192ZM90.0496 5.256C90.327 4.97867 90.535 4.696 90.6736 4.408C90.823 4.12 90.8976 3.816 90.8976 3.496C90.8976 3.048 90.7643 2.68 90.4976 2.392C90.2416 2.09333 89.8736 1.944 89.3936 1.944C88.999 1.944 88.6683 2.06667 88.4016 2.312C88.135 2.54667 88.0016 2.888 88.0016 3.336C88.0016 3.592 88.055 3.816 88.1616 4.008C88.2683 4.2 88.4123 4.37067 88.5936 4.52C88.7856 4.65867 89.0043 4.792 89.2496 4.92C89.495 5.03733 89.7616 5.14933 90.0496 5.256ZM89.4096 9.88C89.9003 9.88 90.3003 9.74667 90.6096 9.48C90.9296 9.21333 91.0896 8.84 91.0896 8.36C91.0896 8.08267 91.0256 7.848 90.8976 7.656C90.7696 7.45333 90.5936 7.27733 90.3696 7.128C90.1563 6.968 89.9003 6.824 89.6016 6.696C89.303 6.568 88.983 6.43467 88.6416 6.296C88.3216 6.53067 88.055 6.808 87.8416 7.128C87.639 7.448 87.5376 7.80533 87.5376 8.2C87.5376 8.712 87.719 9.12267 88.0816 9.432C88.4443 9.73067 88.887 9.88 89.4096 9.88ZM97.3088 11.192C96.4768 11.192 95.7834 11.0533 95.2288 10.776C94.6741 10.4987 94.2154 10.1573 93.8528 9.752L94.7328 8.568C95.0421 8.87733 95.3941 9.144 95.7888 9.368C96.1834 9.58133 96.6368 9.688 97.1488 9.688C97.7034 9.688 98.1514 9.55467 98.4928 9.288C98.8448 9.01067 99.0208 8.632 99.0208 8.152C99.0208 7.88533 98.9728 7.64533 98.8768 7.432C98.7808 7.21867 98.6154 7.03733 98.3808 6.888C98.1568 6.73867 97.8528 6.62667 97.4688 6.552C97.0848 6.46667 96.6048 6.424 96.0288 6.424V5.08C96.5301 5.08 96.9461 5.04267 97.2768 4.968C97.6181 4.88267 97.8901 4.77067 98.0928 4.632C98.3061 4.48267 98.4554 4.30667 98.5408 4.104C98.6368 3.90133 98.6848 3.68267 98.6848 3.448C98.6848 3.02133 98.5514 2.69067 98.2848 2.456C98.0181 2.21067 97.6501 2.088 97.1808 2.088C96.7754 2.088 96.4074 2.17867 96.0768 2.36C95.7568 2.53067 95.4421 2.76 95.1328 3.048L94.1888 1.912C94.6261 1.528 95.0901 1.21867 95.5807 0.983999C96.0821 0.749333 96.6368 0.632 97.2448 0.632C97.7354 0.632 98.1834 0.690667 98.5888 0.808C98.9941 0.925333 99.3408 1.10133 99.6288 1.336C99.9168 1.56 100.141 1.84267 100.301 2.184C100.461 2.51467 100.541 2.89333 100.541 3.32C100.541 3.896 100.381 4.376 100.061 4.76C99.7514 5.144 99.3194 5.44267 98.7648 5.656V5.72C99.3728 5.88 99.8741 6.17333 100.269 6.6C100.674 7.02667 100.877 7.576 100.877 8.248C100.877 8.71733 100.781 9.13333 100.589 9.496C100.407 9.85867 100.151 10.168 99.8208 10.424C99.5008 10.6693 99.1221 10.8613 98.6848 11C98.2581 11.128 97.7994 11.192 97.3088 11.192ZM105.576 5.784C105.875 5.784 106.184 5.69333 106.504 5.512C106.835 5.32 107.133 5.016 107.4 4.6C107.304 3.704 107.08 3.05333 106.728 2.648C106.387 2.24267 105.971 2.04 105.48 2.04C105.064 2.04 104.707 2.20533 104.408 2.536C104.109 2.86667 103.96 3.34133 103.96 3.96C103.96 4.568 104.099 5.02667 104.376 5.336C104.664 5.63467 105.064 5.784 105.576 5.784ZM105.144 11.192C104.536 11.192 104.008 11.08 103.56 10.856C103.112 10.632 102.733 10.36 102.424 10.04L103.416 8.92C103.608 9.144 103.848 9.33067 104.136 9.48C104.435 9.61867 104.739 9.688 105.048 9.688C105.368 9.688 105.667 9.624 105.944 9.496C106.232 9.368 106.483 9.16 106.696 8.872C106.909 8.57333 107.08 8.184 107.208 7.704C107.347 7.224 107.427 6.632 107.448 5.928C107.149 6.30133 106.797 6.59467 106.392 6.808C105.987 7.01067 105.597 7.112 105.224 7.112C104.787 7.112 104.387 7.048 104.024 6.92C103.661 6.792 103.347 6.6 103.08 6.344C102.824 6.07733 102.621 5.74667 102.472 5.352C102.333 4.95733 102.264 4.49333 102.264 3.96C102.264 3.448 102.349 2.98933 102.52 2.584C102.691 2.168 102.92 1.816 103.208 1.528C103.496 1.24 103.832 1.02133 104.216 0.872C104.611 0.712 105.027 0.632 105.464 0.632C105.955 0.632 106.424 0.733333 106.872 0.936C107.32 1.128 107.709 1.42667 108.04 1.832C108.381 2.23733 108.648 2.75467 108.84 3.384C109.043 4.00267 109.144 4.73867 109.144 5.592C109.144 6.584 109.032 7.432 108.808 8.136C108.595 8.84 108.301 9.42133 107.928 9.88C107.565 10.328 107.139 10.6587 106.648 10.872C106.168 11.0853 105.667 11.192 105.144 11.192ZM113.779 5.784C114.078 5.784 114.387 5.69333 114.707 5.512C115.038 5.32 115.336 5.016 115.603 4.6C115.507 3.704 115.283 3.05333 114.931 2.648C114.59 2.24267 114.174 2.04 113.683 2.04C113.267 2.04 112.91 2.20533 112.611 2.536C112.312 2.86667 112.163 3.34133 112.163 3.96C112.163 4.568 112.302 5.02667 112.579 5.336C112.867 5.63467 113.267 5.784 113.779 5.784ZM113.347 11.192C112.739 11.192 112.211 11.08 111.763 10.856C111.315 10.632 110.936 10.36 110.627 10.04L111.619 8.92C111.811 9.144 112.051 9.33067 112.339 9.48C112.638 9.61867 112.942 9.688 113.251 9.688C113.571 9.688 113.87 9.624 114.147 9.496C114.435 9.368 114.686 9.16 114.899 8.872C115.112 8.57333 115.283 8.184 115.411 7.704C115.55 7.224 115.63 6.632 115.651 5.928C115.352 6.30133 115 6.59467 114.595 6.808C114.19 7.01067 113.8 7.112 113.427 7.112C112.99 7.112 112.59 7.048 112.227 6.92C111.864 6.792 111.55 6.6 111.283 6.344C111.027 6.07733 110.824 5.74667 110.675 5.352C110.536 4.95733 110.467 4.49333 110.467 3.96C110.467 3.448 110.552 2.98933 110.723 2.584C110.894 2.168 111.123 1.816 111.411 1.528C111.699 1.24 112.035 1.02133 112.419 0.872C112.814 0.712 113.23 0.632 113.667 0.632C114.158 0.632 114.627 0.733333 115.075 0.936C115.523 1.128 115.912 1.42667 116.243 1.832C116.584 2.23733 116.851 2.75467 117.043 3.384C117.246 4.00267 117.347 4.73867 117.347 5.592C117.347 6.584 117.235 7.432 117.011 8.136C116.798 8.84 116.504 9.42133 116.131 9.88C115.768 10.328 115.342 10.6587 114.851 10.872C114.371 11.0853 113.87 11.192 113.347 11.192Z" fill="#FEFEFE"/>
</svg>
